<svg width="29" height="29" viewBox="0 0 29 29" fill="none" xmlns="http://www.w3.org/2000/svg">
<path d="M17.4124 13.5471L16.666 13.6208L17.4124 13.5471ZM17.8282 17.7576L18.5746 17.6839L17.8282 17.7576ZM17.9532 18.1436L18.5984 17.7613V17.7613L17.9532 18.1436ZM18.8437 19.6465L19.489 19.2642L18.8437 19.6465ZM5.15628 19.6465L4.51105 19.2642L5.15628 19.6465ZM6.04681 18.1436L5.40158 17.7613H5.40158L6.04681 18.1436ZM6.5876 13.5471L7.33397 13.6208L6.5876 13.5471ZM12.75 7C12.75 6.58579 12.4142 6.25 12 6.25C11.5858 6.25 11.25 6.58579 11.25 7H12.75ZM14.6997 21.2581C14.6997 20.8439 14.3639 20.5081 13.9497 20.5081C13.5354 20.5081 13.1997 20.8439 13.1997 21.2581H14.6997ZM10.8003 21.2581C10.8003 20.8439 10.4646 20.5081 10.0503 20.5081C9.63613 20.5081 9.30034 20.8439 9.30034 21.2581H10.8003ZM18.0771 20.5081H5.92286V22.0081H18.0771V20.5081ZM16.666 13.6208L17.0819 17.8314L18.5746 17.6839L18.1588 13.4734L16.666 13.6208ZM17.308 18.526L18.1985 20.0289L19.489 19.2642L18.5984 17.7613L17.308 18.526ZM5.80152 20.0289L6.69204 18.526L5.40158 17.7613L4.51105 19.2642L5.80152 20.0289ZM6.91815 17.8314L7.33397 13.6208L5.84123 13.4734L5.42541 17.6839L6.91815 17.8314ZM6.69204 18.526C6.81822 18.313 6.89411 18.0748 6.91815 17.8314L5.42541 17.6839C5.42218 17.7166 5.41237 17.7431 5.40158 17.7613L6.69204 18.526ZM17.0819 17.8314C17.1059 18.0748 17.1818 18.313 17.308 18.526L18.5984 17.7613C18.5876 17.7431 18.5778 17.7166 18.5746 17.6839L17.0819 17.8314ZM5.92286 20.5081C5.90079 20.5081 5.84046 20.4991 5.78784 20.3884C5.73475 20.2768 5.73581 20.1397 5.80152 20.0289L4.51105 19.2642C4.16858 19.8422 4.185 20.5108 4.43328 21.0328C4.68204 21.5557 5.20908 22.0081 5.92286 22.0081V20.5081ZM18.0771 22.0081C18.7909 22.0081 19.318 21.5557 19.5667 21.0328C19.815 20.5108 19.8314 19.8422 19.489 19.2642L18.1985 20.0289C18.2642 20.1397 18.2652 20.2768 18.2122 20.3884C18.1595 20.4991 18.0992 20.5081 18.0771 20.5081V22.0081ZM12 8.84677C14.3202 8.84677 16.3903 10.8289 16.666 13.6208L18.1588 13.4734C17.8216 10.0595 15.2296 7.34677 12 7.34677V8.84677ZM12 7.34677C8.77045 7.34677 6.17838 10.0595 5.84123 13.4734L7.33397 13.6208C7.60969 10.8289 9.67984 8.84677 12 8.84677V7.34677ZM11.25 7V8.09677H12.75V7H11.25ZM13.1997 21.2581C13.1997 21.783 13.091 22.3273 12.8717 22.7117C12.6722 23.0615 12.4091 23.25 12 23.25V24.75C13.0531 24.75 13.7649 24.1733 14.1746 23.4549C14.5646 22.7713 14.6997 21.9446 14.6997 21.2581H13.1997ZM12 23.25C11.5909 23.25 11.3278 23.0615 11.1283 22.7117C10.909 22.3273 10.8003 21.783 10.8003 21.2581H9.30034C9.30034 21.9446 9.43541 22.7713 9.82537 23.4549C10.2351 24.1733 10.9469 24.75 12 24.75V23.25Z" fill="#8F92A1"/>
<rect x="13" width="16" height="16" rx="8" fill="#FD4C50"/>
<path d="M20.828 12.144C20.212 12.144 19.68 12.036 19.232 11.82C18.792 11.604 18.444 11.308 18.188 10.932C17.94 10.548 17.796 10.116 17.756 9.636H19.256C19.328 9.98 19.504 10.268 19.784 10.5C20.064 10.724 20.412 10.836 20.828 10.836C21.276 10.836 21.64 10.672 21.92 10.344C22.208 10.016 22.352 9.608 22.352 9.12C22.352 8.616 22.208 8.216 21.92 7.92C21.64 7.624 21.284 7.476 20.852 7.476C20.492 7.476 20.18 7.564 19.916 7.74C19.652 7.916 19.464 8.136 19.352 8.4H17.876L18.596 3.6H23.252V4.944H19.748L19.364 6.888C19.54 6.696 19.78 6.54 20.084 6.42C20.388 6.292 20.728 6.228 21.104 6.228C21.704 6.228 22.204 6.364 22.604 6.636C23.004 6.9 23.308 7.252 23.516 7.692C23.724 8.124 23.828 8.596 23.828 9.108C23.828 9.692 23.7 10.212 23.444 10.668C23.196 11.124 22.844 11.484 22.388 11.748C21.94 12.012 21.42 12.144 20.828 12.144Z" fill="white"/>
</svg>
